Coordinates
version=1
nRows=27
nColumns=34
inDegrees=no

Units are S.I. units (second, meters, Newtons, ...)
If the header above contains a line with 'inDegrees', this indicates whether rotational values are in degrees (yes) or radians (no).

endheader
time	pelvis_tilt	pelvis_list	pelvis_rotation	pelvis_tx	pelvis_ty	pelvis_tz	hip_flexion_r	hip_adduction_r	hip_rotation_r	knee_angle_r	ankle_angle_r	subtalar_angle_r	mtp_angle_r	hip_flexion_l	hip_adduction_l	hip_rotation_l	knee_angle_l	ankle_angle_l	subtalar_angle_l	mtp_angle_l	lumbar_extension	lumbar_bending	lumbar_rotation	arm_flex_r	arm_add_r	arm_rot_r	elbow_flex_r	pro_sup_r	arm_flex_l	arm_add_l	arm_rot_l	elbow_flex_l	pro_sup_l
0.75	-0.0695439	0.0476324	-0.0445305	0.755556	1.02448	-0.142152	0.03554	-0.0772356	-0.0613272	0.878304	-0.0442142	-0.0144005	-0.000438455	0.491102	-0.00360553	-0.0627001	0.330064	-0.00506694	0.0163993	-0.000460111	-0.188898	-0.355526	-0.269999	-0.263913	-0.157268	0.0471296	0.727374	1.76124	-0.426774	-0.332507	-0.327851	0.636696	1.52133
0.76	-0.0749903	0.0525334	-0.0461561	0.766645	1.02607	-0.14295	0.0705751	-0.0850968	-0.0547969	0.929491	-0.0974518	-0.0465875	-0.000437607	0.485267	0.00119866	-0.0674899	0.330956	0.0085469	0.0206542	-0.000459215	-0.183423	-0.362193	-0.273304	-0.264809	-0.158545	0.0534621	0.72389	1.76784	-0.418678	-0.341802	-0.332391	0.643193	1.52749
0.77	-0.0802886	0.0571497	-0.0479269	0.777587	1.02768	-0.14371	0.105653	-0.0919805	-0.0479694	0.978229	-0.148373	-0.0794412	-0.000436758	0.478302	0.00586498	-0.0717867	0.32975	0.0212727	0.0248379	-0.00045832	-0.177872	-0.368289	-0.276084	-0.265717	-0.15996	0.0599667	0.721298	1.77336	-0.410322	-0.351705	-0.336381	0.651201	1.53265
0.78	-0.0852408	0.061487	-0.0496352	0.788409	1.02934	-0.144436	0.140057	-0.0978399	-0.0412071	1.02374	-0.195062	-0.112574	-0.000435911	0.470169	0.0104815	-0.0753524	0.326814	0.0330093	0.0288441	-0.000457425	-0.172517	-0.373851	-0.278528	-0.266685	-0.161391	0.0664082	0.719547	1.77762	-0.401637	-0.362269	-0.33965	0.660341	1.53648
0.79	-0.0896751	0.0655099	-0.0511084	0.79914	1.031	-0.145132	0.173241	-0.102621	-0.0348013	1.06542	-0.235429	-0.145481	-0.000435063	0.460893	0.0150705	-0.0780148	0.322477	0.0437634	0.0326181	-0.00045653	-0.167531	-0.378849	-0.280761	-0.267758	-0.162719	0.0724557	0.718529	1.78057	-0.392515	-0.373498	-0.34205	0.670265	1.53887
0.8	-0.0935525	0.0691355	-0.0522236	0.809803	1.03268	-0.145807	0.20484	-0.106273	-0.0289546	1.10283	-0.267451	-0.177553	-0.000434215	0.450544	0.0195916	-0.0796793	0.317037	0.0536086	0.0361455	-0.000455635	-0.163005	-0.383195	-0.282839	-0.268972	-0.163828	0.0777134	0.718097	1.78234	-0.382829	-0.385344	-0.343476	0.680699	1.53998
0.81	-0.0968861	0.0722674	-0.0529062	0.820414	1.03436	-0.146471	0.234675	-0.108758	-0.0237928	1.1357	-0.289463	-0.208116	-0.000433368	0.439253	0.0239567	-0.0803271	0.310746	0.0626561	0.0394441	-0.00045474	-0.158943	-0.386766	-0.284759	-0.270355	-0.164617	0.0817653	0.718077	1.78312	-0.372448	-0.397707	-0.343888	0.691458	1.54017
0.82	-0.0997388	0.0748092	-0.0531207	0.830982	1.03604	-0.147133	0.262723	-0.110066	-0.0193858	1.1639	-0.300412	-0.236489	-0.00043252	0.427191	0.0280535	-0.0800065	0.303821	0.071034	0.0425597	-0.000453846	-0.155293	-0.389427	-0.286487	-0.271918	-0.165004	0.0842262	0.718289	1.78318	-0.361254	-0.410451	-0.343318	0.702452	1.53992
0.83	-0.102199	0.0766808	-0.0528559	0.841511	1.0377	-0.147806	0.289059	-0.110228	-0.0157725	1.18741	-0.300037	-0.262057	-0.000431673	0.414541	0.0317685	-0.0788198	0.296445	0.0788772	0.0455653	-0.000452952	-0.151984	-0.391056	-0.287979	-0.273649	-0.164931	0.0847921	0.718561	1.78278	-0.349155	-0.423411	-0.34187	0.713672	1.53975
0.84	-0.104355	0.0778291	-0.0521126	0.852	1.03931	-0.1485	0.313811	-0.10932	-0.0129813	1.20625	-0.28891	-0.284337	-0.000430826	0.401476	0.0350036	-0.0769095	0.288778	0.086321	0.0485596	-0.000452057	-0.148957	-0.391568	-0.289213	-0.275512	-0.164365	0.0832813	0.718736	1.78214	-0.336096	-0.436414	-0.339701	0.725168	1.54012
0.85	-0.106276	0.0782328	-0.0508951	0.862447	1.04086	-0.149224	0.33711	-0.107459	-0.0110424	1.22049	-0.268355	-0.303031	-0.000429979	0.388137	0.0376867	-0.0744423	0.280954	0.0934967	0.0516606	-0.000451163	-0.146179	-0.390921	-0.29019	-0.277453	-0.163305	0.0796603	0.718684	1.78144	-0.322065	-0.449289	-0.33701	0.737026	1.54139
0.86	-0.108004	0.0779028	-0.0492097	0.87285	1.04234	-0.149984	0.359064	-0.104796	-0.00998957	1.2302	-0.240246	-0.318046	-0.000429133	0.374625	0.0397766	-0.0715886	0.273088	0.100524	0.0549872	-0.00045027	-0.143649	-0.389123	-0.290944	-0.279398	-0.161774	0.0740484	0.718303	1.78077	-0.307091	-0.461876	-0.33401	0.749335	1.54376
0.87	-0.109552	0.0768797	-0.0470677	0.883209	1.04374	-0.150783	0.379743	-0.101502	-0.00985526	1.23545	-0.206741	-0.329481	-0.000428286	0.360996	0.0412656	-0.0684972	0.265271	0.107498	0.0586272	-0.000449376	-0.141387	-0.386226	-0.291526	-0.281272	-0.159825	0.0667025	0.717524	1.78017	-0.291237	-0.474032	-0.330901	0.762165	1.54732
0.88	-0.110915	0.0752299	-0.0444906	0.893526	1.04505	-0.151623	0.399184	-0.0977606	-0.01066	1.2363	-0.170016	-0.337586	-0.00042744	0.347271	0.0421812	-0.0652666	0.257564	0.11448	0.0625994	-0.000448483	-0.139414	-0.382319	-0.291988	-0.283002	-0.15753	0.057982	0.716311	1.77962	-0.274589	-0.485638	-0.327845	0.775545	1.55197
0.89	-0.112082	0.0730402	-0.0415163	0.903806	1.04626	-0.152501	0.417403	-0.0937515	-0.0124008	1.23283	-0.132041	-0.342704	-0.000426594	0.333444	0.0425841	-0.0619218	0.249994	0.121487	0.066818	-0.000447589	-0.137738	-0.377519	-0.292365	-0.284528	-0.154976	0.0483015	0.714661	1.77905	-0.257239	-0.496597	-0.32494	0.789449	1.55752
0.9	-0.113045	0.0704101	-0.038203	0.914055	1.04737	-0.153414	0.43441	-0.0896412	-0.0150407	1.22511	-0.0944345	-0.34522	-0.000425748	0.319497	0.0425628	-0.0584036	0.242561	0.128491	0.0710763	-0.000446697	-0.136339	-0.371956	-0.292661	-0.285809	-0.152254	0.0380774	0.712594	1.77841	-0.239267	-0.506831	-0.322207	0.803787	1.56371
0.91	-0.113814	0.0674411	-0.0346305	0.924279	1.04838	-0.154359	0.450224	-0.0855658	-0.0185012	1.21324	-0.0584143	-0.345518	-0.000424902	0.305419	0.042221	-0.0545788	0.23524	0.135435	0.0750585	-0.000445804	-0.135162	-0.365756	-0.292833	-0.286825	-0.149458	0.0276792	0.710154	1.77766	-0.220724	-0.516281	-0.319583	0.818411	1.57026
0.92	-0.114417	0.0642239	-0.030899	0.934487	1.04928	-0.155332	0.464874	-0.0816152	-0.0226606	1.19731	-0.0248234	-0.34397	-0.000424056	0.291211	0.0416598	-0.0502725	0.228005	0.142252	0.0783842	-0.000444911	-0.134122	-0.359029	-0.292795	-0.287574	-0.146667	0.0173901	0.707394	1.7768	-0.201627	-0.524902	-0.316926	0.833127	1.57687
0.93	-0.114896	0.0608266	-0.0271242	0.944682	1.05006	-0.156328	0.478397	-0.0778199	-0.0273559	1.17744	0.00579182	-0.340932	-0.000423211	0.276904	0.0409568	-0.0453161	0.22084	0.148898	0.0806778	-0.000444019	-0.133112	-0.351855	-0.292416	-0.288067	-0.143948	0.0073853	0.704373	1.77592	-0.181956	-0.532656	-0.314036	0.847707	1.58335
0.94	-0.115304	0.0572858	-0.0234308	0.954871	1.05072	-0.157342	0.490827	-0.0741447	-0.032393	1.1537	0.0330829	-0.336757	-0.000422366	0.262548	0.0401496	-0.039602	0.213758	0.155368	0.0816475	-0.000443127	-0.132022	-0.344277	-0.291538	-0.288325	-0.141349	-0.00227065	0.701153	1.77513	-0.161661	-0.539514	-0.310684	0.861918	1.58953
0.95	-0.115687	0.0536056	-0.0199437	0.965054	1.05125	-0.158367	0.502172	-0.070495	-0.0375608	1.12616	0.0568069	-0.331801	-0.000421521	0.248211	0.0392269	-0.0331277	0.206806	0.161717	0.0811555	-0.000442235	-0.130757	-0.336304	-0.289994	-0.288375	-0.138896	-0.0116078	0.697795	1.77461	-0.140684	-0.545447	-0.306642	0.875547	1.59538
0.96	-0.116078	0.0497624	-0.0167775	0.975235	1.05164	-0.159395	0.512402	-0.0667332	-0.0426528	1.09481	0.0767562	-0.326411	-0.000420676	0.233959	0.0381315	-0.0260206	0.20006	0.168055	0.0792629	-0.000441344	-0.129256	-0.327921	-0.287631	-0.288244	-0.136599	-0.0207204	0.694358	1.77453	-0.11898	-0.550429	-0.301728	0.888425	1.60092
0.97	-0.11648	0.0457145	-0.0140255	0.985415	1.05191	-0.160415	0.52143	-0.0627018	-0.0474923	1.05963	0.092715	-0.320907	-0.000419831	0.219842	0.0367711	-0.018536	0.193609	0.174534	0.0762396	-0.000440452	-0.127503	-0.319098	-0.284338	-0.287951	-0.134455	-0.0297288	0.690904	1.77501	-0.0965468	-0.554436	-0.295825	0.900449	1.60621
0.98	-0.11687	0.0414136	-0.0117487	0.995596	1.05206	-0.161416	0.529106	-0.0582513	-0.0519604	1.02051	0.104442	-0.315539	-0.000418987	0.205874	0.0350368	-0.0110291	0.187544	0.181328	0.0725383	-0.000439561	-0.125539	-0.309806	-0.280063	-0.287509	-0.132453	-0.0387442	0.687491	1.77614	-0.0734494	-0.557454	-0.288908	0.911603	1.61137
0.99	-0.117191	0.0368161	-0.00996575	1.00578	1.05209	-0.162388	0.53522	-0.0532651	-0.0560227	0.977323	0.111681	-0.310434	-0.000418143	0.192026	0.0328244	-0.00390739	0.18193	0.188597	0.0687368	-0.00043867	-0.123454	-0.300025	-0.274831	-0.286915	-0.130578	-0.0478424	0.684168	1.77787	-0.0498327	-0.559474	-0.281051	0.921961	1.61652
1	-0.117365	0.0318944	-0.00864693	1.01598	1.05202	-0.163322	0.539512	-0.0476801	-0.0597489	0.929895	0.114189	-0.305543	-0.000417299	0.178215	0.030055	0.00242674	0.176802	0.196469	0.0654605	-0.000437779	-0.121388	-0.289755	-0.268748	-0.286155	-0.128816	-0.0570532	0.680975	1.78011	-0.0259271	-0.560506	-0.272411	0.931681	1.62176
1.01	-0.117293	0.0266459	-0.00771599	1.0262	1.05187	-0.164213	0.54169	-0.0414989	-0.0633218	0.878091	0.111793	-0.300589	-0.000416455	0.16431	0.0266901	0.00763119	0.172148	0.205012	0.0633005	-0.000436889	-0.119514	-0.279019	-0.261995	-0.285204	-0.127153	-0.0663659	0.677936	1.78263	-0.00203611	-0.560574	-0.263215	0.940989	1.62715
